:SAMPLES-PER-SECOND 30
:FULLY-SPECIFIED
:DEGREES
1461
root  68.6869 38.6478 11.2216 -179.254 72.6473 173.388
RightUpLeg  -23.3511 -4.86498 -2.45139
RightLeg  11.0098 20.7552 2.7561
RightFoot  6.39296 -0.198627 1.5536
RightToes  5.82063e-011 0 -3.6325e-017
Spine  23.5187 -3.54655 -0.54059
Spine1  14.5962 -6.49914 6.67085
HEad  -39.031 16.0569 -23.1958
LeftShoulder1  1.27299 -2.84866 -13.0164
LeftArm  -57.8672 -70.9884 10.4657
LeftForeArm  -17.8559 -7.84148 -0.822302
LeftHand  -0.0289736 6.18465 0.151173
RightShoulder  0.248365 0.848035 -3.14904
RightArm  -37.9478 71.6409 10.6762
RightForeArm  -38.5163 19.8766 5.17704
RightHand  -0.298642 6.04816 -3.34694
LeftUpLeg  -20.7314 -2.08617 4.59983
LeftLeg  9.63016 -16.2 -0.670221
LeftFoot  2.58006 0.697528 -5.83892
LeftToes  1.54581e-011 7.46816e-011 -4.69922e-011
1462
root  68.8292 38.676 11.5786 -178.634 71.9525 173.502
RightUpLeg  -23.6457 -4.95075 -2.09418
RightLeg  10.7493 20.0508 2.89312
RightFoot  6.72502 -0.128606 1.09951
RightToes  5.82063e-011 0 -3.6325e-017
Spine  23.8817 -3.53373 -1.07139
Spine1  14.3038 -6.82718 7.39994
HEad  -39.1496 17.4994 -25.3557
LeftShoulder1  1.24302 -2.77938 -12.7352
LeftArm  -58.6791 -70.7112 10.5897
LeftForeArm  -17.5171 -7.83451 -0.267139
LeftHand  -0.0384792 6.59563 -0.172128
RightShoulder  0.259371 1.13018 -3.27463
RightArm  -38.1131 70.5729 12.2058
RightForeArm  -40.0667 22.3141 6.1605
RightHand  -0.412376 6.65077 -4.32104
LeftUpLeg  -20.669 -0.318731 4.57708
LeftLeg  8.21732 -18.7108 -0.420343
LeftFoot  3.27808 0.774221 -6.1873
LeftToes  1.54581e-011 7.46816e-011 -4.69922e-011
1463
root  68.9646 38.6895 11.9037 -177.477 71.0402 174.399
RightUpLeg  -23.7154 -4.79701 -1.5163
RightLeg  10.5219 19.102 2.7469
RightFoot  6.97122 -0.013822 0.382017
RightToes  5.82063e-011 0 -3.6325e-017
Spine  23.9586 -3.55791 -0.570507
Spine1  14.5587 -6.88207 7.57614
HEad  -40.4023 19.2433 -28.0151
LeftShoulder1  1.23004 -2.80189 -12.4298
LeftArm  -59.5193 -70.9264 11.9214
LeftForeArm  -18.6449 -7.69443 -0.470732
LeftHand  -0.0305871 6.17583 0.285504
RightShoulder  0.258709 0.943899 -3.02727
RightArm  -38.7168 69.1256 14.0339
RightForeArm  -38.5997 25.474 7.13452
RightHand  -0.406944 6.31968 -4.36206
LeftUpLeg  -20.5775 0.437245 4.94633
LeftLeg  7.02699 -20.2078 -0.00891881
LeftFoot  3.64343 0.907713 -7.06525
LeftToes  1.54581e-011 7.46816e-011 -4.69922e-011
1464
root  69.0869 38.702 12.2229 -176.949 70.2289 174.587
RightUpLeg  -24.0204 -4.77959 -1.2199
RightLeg  10.6126 18.1755 2.90448
RightFoot  7.07434 0.107125 -0.36059
RightToes  5.82063e-011 0 -3.6325e-017
Spine  24.0955 -3.50041 -0.723734
Spine1  14.3293 -6.99883 8.02361
HEad  -39.9771 20.2654 -29.823
LeftShoulder1  1.20143 -2.62074 -12.5479
LeftArm  -59.592 -70.9506 11.9892
LeftForeArm  -19.1171 -7.90214 -0.493578
LeftHand  -0.0311598 5.5893 -0.156244
RightShoulder  0.287872 1.15459 -2.60459
RightArm  -38.2849 67.7368 16.3343
RightForeArm  -37.3328 28.4778 7.81734
RightHand  -0.355608 6.14784 -3.90981
LeftUpLeg  -20.4527 1.52483 5.02333
LeftLeg  5.61562 -21.9907 0.435527
LeftFoot  4.17772 1.02496 -7.6999
LeftToes  1.54581e-011 7.46816e-011 -4.69922e-011
1465
root  69.189 38.7139 12.5305 -176.948 69.3888 174.73
RightUpLeg  -23.8417 -4.86648 -0.959805
RightLeg  10.7201 17.3768 3.0661
RightFoot  7.09883 0.231814 -1.12841
RightToes  5.82063e-011 0 -3.6325e-017
Spine  24.3127 -3.47042 -0.823492
Spine1  14.5431 -7.12332 8.34857
HEad  -39.969 21.624 -32.1414
LeftShoulder1  1.16159 -2.4417 -12.4596
LeftArm  -58.5628 -70.6398 10.6043
LeftForeArm  -18.8389 -9.00499 -0.505539
LeftHand  -0.0324739 5.88659 -0.296935
RightShoulder  0.316219 1.24108 -2.04853
RightArm  -38.1852 66.3593 18.1009
RightForeArm  -35.3574 31.438 8.53273
RightHand  -0.363769 5.86618 -4.06024
LeftUpLeg  -19.857 2.63228 5.09334
LeftLeg  4.22547 -23.3963 0.776772
LeftFoot  4.69244 1.14551 -8.32789
LeftToes  1.54581e-011 7.46816e-011 -4.69922e-011
1466
root  69.3003 38.6998 12.8307 -176.799 68.278 174.696
RightUpLeg  -24.0842 -5.15977 -0.855866
RightLeg  11.127 16.397 3.42763
RightFoot  6.90958 0.327517 -1.74215
RightToes  5.82063e-011 0 -3.6325e-017
Spine  24.1633 -3.43301 -0.796176
Spine1  14.4693 -7.19962 8.66905
HEad  -40.3039 22.8471 -34.3619
LeftShoulder1  1.20949 -2.56993 -12.8787
LeftArm  -57.428 -70.3745 9.97605
LeftForeArm  -17.6765 -10.2178 -1.00126
LeftHand  -0.0266906 5.49419 -1.04809
RightShoulder  0.343578 1.27835 -1.44249
RightArm  -38.2221 64.7944 20.8647
RightForeArm  -32.2229 33.5272 9.01396
RightHand  -0.216167 5.48199 -2.62799
LeftUpLeg  -19.9482 3.21696 5.25992
LeftLeg  3.66705 -22.6945 0.727476
LeftFoot  4.80237 1.20688 -8.70732
LeftToes  1.54581e-011 7.46816e-011 -4.69922e-011
1467
root  69.4159 38.7078 13.1209 -176.72 67.0393 174.697
RightUpLeg  -24.062 -5.41289 -0.777743
RightLeg  11.2144 15.3248 3.60436
RightFoot  6.76431 0.411982 -2.29217
RightToes  5.82063e-011 0 -3.6325e-017
Spine  23.8171 -3.37536 -1.28794
Spine1  14.9994 -7.54155 9.52994
HEad  -41.1225 24.1998 -37.0214
LeftShoulder1  1.20693 -2.23368 -13.5604
LeftArm  -56.8464 -70.3482 9.36541
LeftForeArm  -17.3129 -11.8435 -1.50839
LeftHand  -0.0261331 5.3578 -0.670099
RightShoulder  0.363344 1.15851 -0.830626
RightArm  -37.8065 63.5677 21.5915
RightForeArm  -31.5052 36.117 9.76858
RightHand  -0.211926 5.40962 -2.58149
LeftUpLeg  -19.9745 3.31579 5.37782
LeftLeg  3.57172 -19.5383 0.945017
LeftFoot  4.74942 1.12998 -8.19304
LeftToes  1.54581e-011 7.46816e-011 -4.69922e-011
1468
root  69.4958 38.7086 13.3936 -176.653 65.3924 174.859
RightUpLeg  -23.8911 -5.71535 -0.792486
RightLeg  11.3551 13.7628 3.64427
RightFoot  6.3609 0.423066 -2.43438
RightToes  5.82063e-011 0 -3.6325e-017
Spine  23.9967 -4.28669 1.14294
Spine1  13.2582 -6.87405 5.5811
HEad  -36.8317 23.7754 -35.3698
LeftShoulder1  1.17915 -4.32634 -10.3445
LeftArm  -50.8264 -68.4198 1.26259
LeftForeArm  -15.7517 -13.9946 -1.8718
LeftHand  -0.030408 5.45749 -0.638591
RightShoulder  0.446459 0.945748 2.35895
RightArm  -35.7878 60.1835 22.8035
RightForeArm  -31.2917 39.4987 10.8734
RightHand  -0.350392 4.91613 -4.26573
LeftUpLeg  -20.3486 3.04237 5.66439
LeftLeg  4.74026 -14.2057 0.962776
LeftFoot  3.56021 0.909164 -7.0898
LeftToes  1.54581e-011 7.46816e-011 -4.69922e-011
1469
root  69.5826 38.7668 13.6688 -177.378 63.6673 174.463
RightUpLeg  -23.1859 -6.32955 -1.04318
RightLeg  11.0807 12.5743 3.77038
RightFoot  6.40678 0.568122 -3.35471
RightToes  5.82063e-011 0 -3.6325e-017
Spine  25.4634 -7.05731 10.2793
Spine1  6.25882 -2.97183 -10.8454
HEad  -21.154 20.0127 -23.534
LeftShoulder1  1.0532 -12.0174 2.51873
LeftArm  -37.7511 -62.9272 -18.3288
LeftForeArm  -12.2142 -15.8087 -1.76893
LeftHand  -0.0214407 4.42215 -0.485839
RightShoulder  0.683443 -0.130187 13.0501
RightArm  -30.0447 52.6483 25.3299
RightForeArm  -29.8892 43.0762 12.1357
RightHand  -0.381226 3.40998 -5.26335
LeftUpLeg  -20.1669 3.32507 5.71315
LeftLeg  5.49858 -9.83998 1.06807
LeftFoot  2.09646 0.498526 -4.33483
LeftToes  1.54581e-011 7.46816e-011 -4.69922e-011
1470
root  69.6835 38.8259 13.9224 -178.058 61.3964 174.452
RightUpLeg  -21.9982 -6.9093 -1.32627
RightLeg  10.7192 10.8276 3.68352
RightFoot  6.25889 0.650432 -3.92013
RightToes  5.82063e-011 0 -3.6325e-017
Spine  25.0854 -6.72391 8.509
Spine1  7.7945 -3.8105 -7.48771
HEad  -24.2729 22.4135 -27.1479
LeftShoulder1  1.25758 -10.4879 -0.618691
LeftArm  -37.3451 -63.9327 -18.2484
LeftForeArm  -11.8433 -18.217 -3.36088
LeftHand  -0.0255487 4.03434 0.362751
RightShoulder  0.651768 -0.124545 12.2974
RightArm  -32.2848 49.9898 26.6935
RightForeArm  -25.9173 46.5972 13.4301
RightHand  -0.336776 2.44334 -5.17382
LeftUpLeg  -19.7932 3.84599 5.80882
LeftLeg  6.10218 -6.73665 1.00426
LeftFoot  0.372678 0.31392 -3.11011
LeftToes  1.54581e-011 7.46816e-011 -4.69922e-011
1471
root  69.7932 38.8689 14.1407 -179.109 59.2328 174.377
RightUpLeg  -20.5928 -7.67367 -1.70817
RightLeg  10.682 9.37009 3.76064
RightFoot  5.8857 0.65106 -4.02817
RightToes  5.82063e-011 0 -3.6325e-017
Spine  25.1556 -6.76428 8.158
Spine1  8.22844 -4.10109 -6.58262
HEad  -24.9901 23.3806 -29.0066
LeftShoulder1  1.4109 -9.80056 -2.45616
LeftArm  -33.8132 -64.2861 -20.0743
LeftForeArm  -11.9572 -20.4904 -4.6477
LeftHand  -0.0181554 3.83055 -0.175805
RightShoulder  0.655959 -0.187815 12.8658
RightArm  -33.6653 46.1761 28.1936
RightForeArm  -21.7309 50.4018 15.0873
RightHand  -0.268602 1.92183 -4.4367
LeftUpLeg  -18.8315 4.6802 5.85697
LeftLeg  6.69212 -4.52001 0.710177
LeftFoot  -1.22922 0.344363 -3.81596
LeftToes  1.54581e-011 7.46816e-011 -4.69922e-011
1472
root  69.9141 38.905 14.3649 -179.973 56.7324 174.045
RightUpLeg  -19.7648 -8.3498 -2.22456
RightLeg  10.9711 7.5564 3.63119
RightFoot  5.45172 0.662531 -4.22817
RightToes  5.82063e-011 0 -3.6325e-017
Spine  24.7832 -6.48556 7.22398
Spine1  8.86535 -4.5283 -4.61415
HEad  -26.5032 24.6107 -31.264
LeftShoulder1  1.53455 -9.04494 -4.30377
LeftArm  -30.4266 -63.911 -23.4141
LeftForeArm  -10.3306 -23.9878 -5.652
LeftHand  -0.00461221 3.2259 -0.808728
RightShoulder  0.613228 -0.490449 13.4908
RightArm  -33.022 42.2479 27.1865
RightForeArm  -20.3549 55.2351 17.9272
RightHand  -0.276364 2.96207 -4.11738
LeftUpLeg  -18.2613 5.557 5.5404
LeftLeg  7.81053 -2.6447 0.180777
LeftFoot  -2.18339 0.359665 -4.3097
LeftToes  1.54581e-011 7.46816e-011 -4.69922e-011
1473
root  70.0462 38.9065 14.536 179.097 53.9791 172.898
RightUpLeg  -19.8118 -9.44385 -3.2489
RightLeg  11.9696 5.8329 3.55248
RightFoot  4.45738 0.606204 -4.14738
RightToes  5.82063e-011 0 -3.6325e-017
Spine  23.9976 -6.07834 5.32558
Spine1  9.08296 -5.4104 -1.59417
HEad  -29.3326 27.1573 -34.2538
LeftShoulder1  1.66854 -8.17581 -6.61781
LeftArm  -25.866 -62.6064 -27.1951
LeftForeArm  -10.7721 -28.0028 -6.60281
LeftHand  -0.0184672 2.49804 0.228938
RightShoulder  0.597086 -0.582093 13.6037
RightArm  -31.8277 38.0991 26.2794
RightForeArm  -17.7682 60.7282 22.3168
RightHand  -0.290307 4.1338 -3.76616
LeftUpLeg  -17.9322 5.97863 4.39887
LeftLeg  8.87931 -0.42566 0.0375735
LeftFoot  -2.68894 0.28553 -3.56434
LeftToes  1.54581e-011 7.46816e-011 -4.69922e-011
